<?xml version="1.0" standalone="no"?>
<!DOCTYPE svg PUBLIC "-//W3C//DTD SVG 20010904//EN"
 "http://www.w3.org/TR/2001/REC-SVG-20010904/DTD/svg10.dtd">
<svg version="1.0" xmlns="http://www.w3.org/2000/svg"
 width="59.000000pt" height="62.000000pt" viewBox="0 0 59.000000 62.000000"
 preserveAspectRatio="xMidYMid meet">

<g transform="translate(0.000000,62.000000) scale(0.100000,-0.100000)"
fill="#000000" stroke="none">
<path d="M217 432 c-95 -96 -106 -110 -92 -122 14 -12 14 -15 -2 -32 -16 -18
-13 -23 95 -131 l112 -112 112 112 c96 96 110 114 99 127 -11 13 -11 19 0 32
11 13 -3 30 -97 125 -60 60 -111 109 -114 109 -3 0 -54 -49 -113 -108z m218
-12 l100 -100 -103 -103 -102 -102 -102 102 -103 103 100 100 c55 55 102 100
105 100 3 0 50 -45 105 -100z"/>
<path d="M250 395 l-75 -75 78 -78 77 -77 77 77 78 78 -75 75 c-41 41 -77 75
-80 75 -3 0 -39 -34 -80 -75z m120 -40 l34 -35 -37 -38 -37 -37 -37 37 -37 38
34 35 c19 19 37 35 40 35 3 0 21 -16 40 -35z"/>
<path d="M314 329 c-10 -17 13 -36 27 -22 12 12 4 33 -11 33 -5 0 -12 -5 -16
-11z"/>
</g>
</svg>
